<?xml version="1.0" encoding="UTF-8" ?>
<!DOCTYPE svg PUBLIC "-//W3C//DTD SVG 1.1//EN" "http://www.w3.org/Graphics/SVG/1.1/DTD/svg11.dtd">
<svg width="604pt" height="168pt" viewBox="0 0 604 168" version="1.1" xmlns="http://www.w3.org/2000/svg">
<g id="#db202cff">
<path fill="#db202c" opacity="1.00" d=" M 10.39 10.01 C 19.84 9.99 29.30 10.01 38.76 10.00 C 45.98 36.71 53.41 63.36 60.81 90.02 C 61.07 63.35 60.93 36.67 60.89 10.00 C 67.58 10.00 74.28 9.99 80.97 10.01 C 80.95 55.20 81.01 100.39 80.94 145.58 C 73.26 146.10 65.66 147.59 57.99 148.08 C 56.79 146.97 56.98 145.04 56.44 143.57 C 48.99 114.85 41.12 86.25 33.32 57.62 C 32.66 55.08 32.02 52.54 31.08 50.09 C 30.88 83.97 30.92 117.87 31.06 151.75 C 24.19 152.95 17.28 153.82 10.39 154.89 C 10.41 106.59 10.42 58.30 10.39 10.01 Z" />
<path fill="#db202c" opacity="1.00" d=" M 96.03 10.01 C 116.30 10.00 136.58 9.99 156.86 10.01 C 156.85 15.97 156.87 21.93 156.84 27.89 C 144.18 28.06 131.51 27.92 118.85 28.30 C 118.86 40.12 118.87 51.94 118.85 63.77 C 128.88 63.04 138.93 63.16 148.97 62.73 C 148.97 68.86 148.97 74.99 148.97 81.12 C 138.94 82.00 128.85 81.75 118.83 82.73 C 118.87 95.58 118.88 108.43 118.83 121.28 C 131.53 120.69 144.16 119.20 156.87 118.83 C 156.85 125.27 156.85 131.71 156.87 138.15 C 136.57 139.96 116.24 141.49 95.99 143.85 C 96.08 99.24 95.99 54.62 96.03 10.01 Z" />
<path fill="#db202c" opacity="1.00" d=" M 166.25 9.99 C 174.08 10.01 181.91 10.00 189.74 10.00 C 195.17 24.69 200.35 39.49 205.99 54.09 C 211.64 39.46 217.11 24.75 222.52 10.03 C 229.58 9.97 236.65 10.02 243.71 9.99 C 236.24 29.09 228.69 48.16 221.37 67.32 C 220.26 69.93 222.30 72.43 223.02 74.87 C 230.54 94.44 238.40 113.92 245.22 133.74 C 237.26 133.99 229.30 133.95 221.35 134.44 C 215.83 117.72 209.87 101.14 203.71 84.65 C 197.63 101.83 191.63 119.03 185.84 136.29 C 178.82 136.97 171.76 136.88 164.77 137.77 C 172.01 115.16 180.60 92.98 188.84 70.72 C 189.34 69.43 188.58 68.12 188.20 66.90 C 180.83 47.95 173.53 28.98 166.25 9.99 Z" />
<path fill="#db202c" opacity="1.00" d=" M 249.13 10.02 C 272.07 9.99 295.02 10.00 317.97 10.01 C 317.97 15.71 317.98 21.41 317.96 27.11 C 310.32 27.04 302.67 27.06 295.03 27.09 C 294.89 62.35 295.03 97.61 294.96 132.86 C 287.35 132.95 279.74 132.98 272.14 132.96 C 272.12 97.68 272.12 62.41 272.14 27.14 C 264.47 27.08 256.80 27.20 249.13 27.19 C 249.13 21.46 249.12 15.74 249.13 10.02 Z" />
<path fill="#db202c" opacity="1.00" d=" M 326.94 10.01 C 346.58 10.00 366.22 9.99 385.85 10.01 C 385.87 15.79 385.84 21.57 385.88 27.35 C 373.77 27.40 361.67 27.17 349.56 27.18 C 349.54 39.14 349.60 51.10 349.53 63.05 C 359.00 63.11 368.48 63.16 377.96 63.44 C 377.98 69.42 377.96 75.40 377.98 81.38 C 368.49 81.02 359.01 80.95 349.52 80.94 C 349.68 98.36 349.38 115.78 349.68 133.19 C 342.10 133.27 334.53 132.85 326.95 132.96 C 327.02 91.97 327.03 50.99 326.94 10.01 Z" />
<path fill="#db202c" opacity="1.00" d=" M 395.89 10.00 C 403.28 10.00 410.67 10.00 418.06 10.00 C 417.98 52.07 417.96 94.14 418.09 136.20 C 410.68 136.00 403.29 135.47 395.89 134.99 C 395.97 93.33 395.98 51.66 395.89 10.00 Z" />
<path fill="#db202c" opacity="1.00" d=" M 433.89 10.00 C 441.28 10.00 448.67 10.00 456.07 10.00 C 455.93 46.38 456.06 82.77 456.02 119.15 C 468.19 120.37 480.42 120.73 492.58 122.14 C 492.55 128.78 492.55 135.42 492.58 142.07 C 473.01 140.48 453.46 138.58 433.87 137.29 C 433.99 94.86 433.97 52.43 433.89 10.00 Z" />
<path fill="#db202c" opacity="1.00" d=" M 501.13 10.02 C 511.65 10.00 522.18 9.96 532.70 10.04 C 535.82 31.10 539.80 52.04 543.09 73.09 C 544.98 84.11 546.55 95.19 548.55 106.20 C 552.89 74.07 558.27 42.08 563.09 10.01 C 573.39 9.98 583.70 10.01 594.00 10.00 C 593.97 58.35 594.06 106.69 593.95 155.04 C 586.98 153.77 579.93 152.97 572.93 151.80 C 573.02 122.53 572.93 93.25 572.99 63.98 C 572.97 59.66 573.16 55.32 572.61 51.02 C 567.95 84.00 562.88 116.94 558.20 149.92 C 551.17 148.73 544.05 148.13 537.00 147.07 C 533.34 124.73 530.02 102.33 526.19 80.01 C 524.72 70.18 522.59 60.45 521.57 50.55 C 521.16 52.71 520.95 54.89 520.98 57.09 C 521.10 86.45 520.93 115.82 521.09 145.18 C 514.43 144.47 507.75 143.94 501.13 142.93 C 501.13 98.62 501.13 54.32 501.13 10.02 Z" />
</g>
</svg>
